<svg width="48" height="48" viewBox="0 0 48 48" fill="none" xmlns="http://www.w3.org/2000/svg">
<mask id="mask0_643_23110" style="mask-type:luminance" maskUnits="userSpaceOnUse" x="8" y="13" width="32" height="26">
<path fill-rule="evenodd" clip-rule="evenodd" d="M8.57129 13.0453H39.4139V38.5713H8.57129V13.0453Z" fill="white"/>
</mask>
<g mask="url(#mask0_643_23110)">
<path fill-rule="evenodd" clip-rule="evenodd" d="M19.5856 15.9601C19.5856 15.9601 12.0768 12.4692 8.71743 21.1966C8.71743 21.1966 6.14872 34.3846 22.5496 38.4572C22.5496 38.4572 33.2198 40.0086 38.1598 31.6692C38.1598 31.6692 42.1119 21.5846 35.9864 16.5423C35.9864 16.5423 32.6271 13.2452 27.8844 14.6029C27.8844 14.6029 25.9089 11.6938 21.9569 13.8269C21.9569 13.8269 19.5856 14.6029 19.5856 15.9601Z" fill="#FB400D"/>
</g>
<mask id="mask1_643_23110" style="mask-type:luminance" maskUnits="userSpaceOnUse" x="16" y="9" width="17" height="15">
<path fill-rule="evenodd" clip-rule="evenodd" d="M16.5488 9.97058H32.1194V23.1248H16.5488V9.97058Z" fill="white"/>
</mask>
<g mask="url(#mask1_643_23110)">
<path fill-rule="evenodd" clip-rule="evenodd" d="M22.0764 17.4585C22.0764 17.4585 17.5018 16.4466 16.5488 19.6843C16.5488 19.6843 19.0265 18.0655 22.6481 19.2801L20.9325 23.1248L24.9354 20.899L26.8498 23.1248L27.2227 19.4822C27.2227 19.4822 31.2251 18.6725 31.9871 19.0773C32.7497 19.4822 30.1098 16.7543 26.76 17.3088L28.3661 15.6368C28.3661 15.6368 25.8884 15.4347 24.9354 16.2439C24.9354 16.2439 22.4577 10.3753 20.1704 9.97046C20.1704 9.97046 22.2668 15.2326 22.0764 17.4585Z" fill="#1FA920"/>
</g>
</svg>
