<svg width="48" height="48" viewBox="0 0 48 48" fill="none" xmlns="http://www.w3.org/2000/svg">
<mask id="mask0_643_23158" style="mask-type:luminance" maskUnits="userSpaceOnUse" x="9" y="12" width="30" height="25">
<path fill-rule="evenodd" clip-rule="evenodd" d="M9.42871 12.9644H38.8904V36.5765H9.42871V12.9644Z" fill="white"/>
</mask>
<g mask="url(#mask0_643_23158)">
<path fill-rule="evenodd" clip-rule="evenodd" d="M36.7072 22.213C36.4757 23.9804 35.4952 25.2996 34.1932 26.287L34.1855 26.2956L34.1932 26.287C30.6986 28.939 24.8726 29.1884 24.8726 29.1884C18.4175 29.1884 15.3163 27.2418 13.8257 25.4058L13.8266 25.4076L13.8257 25.4058C12.4946 23.7661 12.4475 22.213 12.4475 22.213C11.982 15.7021 25.0029 15.2376 25.0029 15.2376C38.0237 15.7021 36.7072 22.213 36.7072 22.213ZM33.65 15.2376C33.65 15.2376 25.9331 10.123 14.3077 15.2376C14.3077 15.2376 8.22969 18.493 9.6414 23.6084C11.0523 28.7238 13.8423 32.9093 16.1677 34.303C16.1677 34.303 24.2968 39.4184 33.2531 34.303C33.2531 34.303 37.9588 30.5838 38.6891 23.6084C38.6891 23.6084 40.436 18.0276 33.65 15.2376L29.1507 31.3429L33.65 15.2376Z" fill="#F0F2F3"/>
</g>
<path fill-rule="evenodd" clip-rule="evenodd" d="M20.2856 18.0282C11.4098 19.8831 13.8124 25.3748 13.8253 25.4056C15.3158 27.2425 18.4178 29.1882 24.873 29.1882C24.873 29.1882 30.699 28.9388 34.1936 26.2868C37.7798 22.9336 33.7624 20.4411 33.7624 20.4411C33.7624 20.4411 29.1878 16.1682 20.2856 18.0282Z" fill="#DC4B1A"/>
<path fill-rule="evenodd" clip-rule="evenodd" d="M25.0028 15.2379C25.0028 15.2379 11.9828 15.7024 12.4482 22.2133C12.4482 22.2133 12.4945 23.7656 13.8257 25.4053C13.8119 25.3744 11.4102 19.8827 20.2859 18.0279C29.1882 16.1679 33.7628 20.4407 33.7628 20.4407C33.7628 20.4407 37.7794 22.9341 34.1939 26.2873C35.4951 25.299 36.4765 23.9799 36.7071 22.2133C36.7071 22.2133 38.0237 15.7024 25.0028 15.2379Z" fill="#D8D8D8"/>
<mask id="mask1_643_23158" style="mask-type:luminance" maskUnits="userSpaceOnUse" x="16" y="12" width="18" height="9">
<path fill-rule="evenodd" clip-rule="evenodd" d="M16.187 12.0002H33.7627V20.4411H16.187V12.0002Z" fill="white"/>
</mask>
<g mask="url(#mask1_643_23158)">
<path fill-rule="evenodd" clip-rule="evenodd" d="M16.187 20.0434C16.187 20.0434 16.187 13.6352 22.5642 14.1891C22.5642 14.1891 23.2944 11.9999 29.1324 11.9999C29.1324 11.9999 28.4022 13.4588 29.8619 14.9185C29.8619 14.9185 33.2853 14.2877 33.7627 20.4411L16.187 20.0434Z" fill="#DC4B1A"/>
</g>
</svg>
