<svg width="100" height="100" viewBox="0 0 100 100" fill="none" xmlns="http://www.w3.org/2000/svg">
<path fill-rule="evenodd" clip-rule="evenodd" d="M42.4392 9.55498C41.9282 6.14834 37.0166 6.14834 36.5056 9.55498L35.1709 18.4528C35.0013 19.5837 34.2034 20.5198 33.1137 20.8665L27.0904 22.783C24.3032 23.6699 24.3032 27.6137 27.0904 28.5006L33.1137 30.4171C34.2034 30.7638 35.0013 31.6999 35.1709 32.8308L36.5056 41.7286C37.0166 45.1353 41.9282 45.1353 42.4392 41.7286L43.7738 32.8308C43.9435 31.6999 44.7413 30.7638 45.831 30.4171L51.8543 28.5006C54.6415 27.6137 54.6415 23.6699 51.8543 22.783L45.831 20.8665C44.7413 20.5198 43.9435 19.5837 43.7738 18.4528L42.4392 9.55498Z" fill="#FED7AA"/>
<path fill-rule="evenodd" clip-rule="evenodd" d="M14.2092 46.4957C13.9101 44.5014 11.0347 44.5014 10.7356 46.4957L9.95424 51.7046C9.85493 52.3667 9.38787 52.9147 8.74992 53.1177L5.22379 54.2396C3.59212 54.7588 3.59212 57.0676 5.22379 57.5868L8.74992 58.7087C9.38787 58.9117 9.85493 59.4597 9.95424 60.1218L10.7356 65.3307C11.0347 67.325 13.9101 67.325 14.2092 65.3307L14.9905 60.1218C15.0899 59.4597 15.5569 58.9117 16.1949 58.7087L19.721 57.5868C21.3527 57.0676 21.3527 54.7588 19.721 54.2396L16.1949 53.1177C15.5569 52.9147 15.0899 52.3667 14.9905 51.7046L14.2092 46.4957Z" fill="#FDA4AF"/>
<mask id="mask0_3238_6969" style="mask-type:luminance" maskUnits="userSpaceOnUse" x="28" y="62" width="68" height="31">
<path fill-rule="evenodd" clip-rule="evenodd" d="M28 62.5H95.1671V92.8272H28V62.5Z" fill="white"/>
</mask>
<g mask="url(#mask0_3238_6969)">
<path fill-rule="evenodd" clip-rule="evenodd" d="M27.999 66.2976L28.7016 73.2663C28.7016 73.2663 33.711 73.6683 33.1236 77.702C33.1236 77.702 32.5382 81.7337 28.6059 82.1318L28.6118 92.0649L52.4217 91.7253C52.4217 91.7253 54.9645 87.4184 58.9982 88.0038C58.9982 88.0038 62.0484 88.6908 63.3285 91.5419C64.6107 94.391 92.144 91.6141 92.144 91.6141L94.0018 80.4985C94.0018 80.4985 88.7875 78.0455 90.3584 73.9122C91.9294 69.781 95.0771 71.4495 95.0771 71.4495L95.1669 62.5C70.8808 67.931 27.999 66.2976 27.999 66.2976Z" fill="#FFDB45"/>
</g>
<mask id="mask1_3238_6969" style="mask-type:luminance" maskUnits="userSpaceOnUse" x="28" y="40" width="68" height="27">
<path fill-rule="evenodd" clip-rule="evenodd" d="M28 40H95.1677V66.5284H28V40Z" fill="white"/>
</mask>
<g mask="url(#mask1_3238_6969)">
<path fill-rule="evenodd" clip-rule="evenodd" d="M87.0926 51.3947C87.0926 51.3947 77.0601 50.4209 76.664 46.4848C76.664 46.4848 76.4649 44.5196 79.316 43.2375L72.0351 40L58.8216 46.8731C58.8216 46.8731 61.2278 51.0258 58.3767 52.306C55.5256 53.5862 50.6098 54.0838 48.4437 52.3158L28 66.2981C28 66.2981 70.8798 67.9315 95.1679 62.4986L87.0926 51.3947Z" fill="#FFE576"/>
</g>
<circle cx="58.2478" cy="66.3445" r="4.87869" fill="white"/>
<circle cx="69.9568" cy="66.3445" r="4.87869" fill="white"/>
<circle cx="59.2238" cy="65.3688" r="3.90295" fill="#3F4542"/>
<circle cx="70.9323" cy="65.3688" r="3.90295" fill="#3F4542"/>
</svg>
